<svg width="97" height="96" viewBox="0 0 97 96" fill="none" xmlns="http://www.w3.org/2000/svg">
<path d="M43.8657 37.5886C43.8657 37.7833 43.8657 37.9322 43.8657 38.0868C43.8657 51.5575 43.8657 65.0282 43.86 78.4989C43.86 78.6879 43.8313 78.8941 43.7626 79.066C42.4682 82.3363 41.1681 85.6066 39.868 88.8769C39.6905 89.3293 39.6446 89.7875 39.7706 90.2572C40.0398 91.248 40.8416 91.8093 41.9986 91.8093C59.2379 91.8093 76.4771 91.8093 93.7164 91.8093C93.957 91.8093 94.2033 91.8036 94.4324 91.7463C95.721 91.4141 96.3567 90.114 95.847 88.8654C94.5813 85.7612 93.3098 82.657 92.0555 79.5413C91.9295 79.2263 91.8665 78.8655 91.8665 78.5276C91.8551 54.5988 91.8608 30.6642 91.8608 6.73537C91.8608 6.6151 91.8608 6.49482 91.8608 6.37455C91.8436 5.05154 90.973 4.18671 89.65 4.18671C75.1255 4.18671 60.601 4.18671 46.0822 4.18671C44.7477 4.18671 43.8657 5.06872 43.8657 6.40319C43.8657 10.4009 43.8657 14.3986 43.8657 18.3962C43.8657 18.5108 43.8657 18.6311 43.8657 18.7628C45.2746 18.7628 46.6492 18.7628 48.0638 18.7628C48.0638 15.2863 48.0638 11.8384 48.0638 8.38485C61.294 8.38485 74.4783 8.38485 87.6741 8.38485C87.6741 31.3286 87.6741 54.2551 87.6741 77.1702C74.4554 77.1702 61.2653 77.1702 48.0466 77.1702C48.0466 63.963 48.0466 50.7843 48.0466 37.5828C46.6434 37.5886 45.2689 37.5886 43.8657 37.5886Z" fill="#16736F"/>
<path d="M56.3989 16.7469C64.0736 16.7469 71.6967 16.7469 79.3427 16.7469C79.3427 16.8958 79.3427 17.0103 79.3427 17.1306C79.3427 29.3642 79.3427 41.5978 79.3427 53.8314C79.3427 54.2609 79.3427 54.2609 78.9246 54.2609C71.542 54.2609 64.1595 54.2609 56.7769 54.2609C56.6624 54.2609 56.5421 54.2609 56.3875 54.2609C56.3875 48.6768 56.3875 43.1327 56.3875 37.5886C54.9728 37.5886 53.5983 37.5886 52.2008 37.5886C52.2008 37.7433 52.2008 37.8693 52.2008 38.001C52.2008 41.1339 52.2008 44.2667 52.2008 47.3996C52.2008 50.3549 52.2008 53.3159 52.2008 56.2712C52.2008 56.8955 52.4184 57.4167 52.8652 57.852C53.3405 58.3102 53.919 58.4362 54.549 58.4362C58.9419 58.4362 63.3347 58.4362 67.7276 58.4362C72.1949 58.4362 76.668 58.4362 81.1353 58.4362C81.6565 58.4362 82.1605 58.3617 82.5958 58.0524C83.2888 57.5656 83.5122 56.8726 83.5122 56.0593C83.5064 42.3366 83.5064 28.6139 83.5064 14.8855C83.5064 14.7767 83.5064 14.6678 83.5007 14.559C83.4033 13.3047 82.5614 12.5258 81.3014 12.5258C72.3324 12.5258 63.3576 12.5258 54.3886 12.5258C53.0943 12.5258 52.2008 13.4136 52.2008 14.7022C52.1951 15.9508 52.2008 17.1993 52.2008 18.4479C52.2008 18.551 52.2008 18.6541 52.2008 18.7514C53.6269 18.7514 55.0015 18.7514 56.3989 18.7514C56.3989 18.0756 56.3989 17.4227 56.3989 16.7469Z" fill="#16736F"/>
<path d="M20.9234 20.8762C26.6163 20.8762 31.3242 16.2828 31.3586 10.4696C31.3929 4.73079 26.6679 0.00573257 20.9348 5.2265e-06C15.1903 -0.00572211 10.4824 4.69642 10.4824 10.4352C10.4767 16.1912 15.1674 20.8819 20.9234 20.8762Z" fill="#16736F"/>
<path d="M0.0229094 34.0894C0.131729 33.3448 0.17182 32.5831 0.360822 31.8614C1.55784 27.2853 4.4616 24.4102 9.0492 23.2418C10.5097 22.8695 12.0045 22.9669 13.4879 22.9726C13.5967 22.9726 13.7399 23.1502 13.8029 23.2762C15.2404 26.1513 16.6666 29.0264 18.0984 31.9073C18.6826 33.0814 19.2668 34.2497 19.8681 35.4582C19.3928 35.4811 18.946 35.4754 18.5108 35.5269C17.5428 35.6415 16.7754 36.4605 16.7696 37.4399C16.7525 40.3093 16.7525 43.1787 16.7696 46.0481C16.7754 47.0618 17.6058 47.9324 18.6081 47.961C20.1087 48.0068 21.6093 48.0125 23.1098 47.9725C24.261 47.9381 25.0628 47.079 25.0686 45.9335C25.0857 43.1386 25.0857 40.3494 25.0686 37.5544C25.0628 36.3631 24.1866 35.5212 22.9838 35.4869C22.6574 35.4754 22.3309 35.4869 21.9586 35.4869C22.0961 35.2062 22.2049 34.9771 22.3252 34.7423C24.2438 30.9222 26.1682 27.1078 28.0811 23.2819C28.2071 23.0242 28.3561 22.9497 28.631 22.9497C37.4453 22.9554 46.2654 22.9554 55.0798 22.9554C57.2161 22.9554 58.8541 23.8203 59.9252 25.6874C61.5746 28.5797 59.908 32.4399 56.672 33.2188C56.1795 33.3391 55.6583 33.3964 55.1486 33.3964C48.0867 33.4078 41.0192 33.4021 33.9574 33.4021C33.8085 33.4021 33.6538 33.4021 33.4477 33.4021C33.4477 33.5911 33.4477 33.7457 33.4477 33.9061C33.4477 52.6689 33.4477 71.4259 33.4477 90.1887C33.4477 91.3685 33.2816 92.514 32.7088 93.5678C31.9643 94.9481 30.7959 95.7041 29.2553 95.9217C29.1693 95.9332 29.0892 95.9676 29.0032 95.9905C28.6081 95.9905 28.2129 95.9905 27.8177 95.9905C27.7833 95.9676 27.749 95.9332 27.7089 95.9275C24.9311 95.6067 23.0067 93.2242 23.001 90.4407C22.9895 82.4682 22.9953 74.4958 22.9953 66.5233C22.9953 66.3458 22.9953 66.1739 22.9724 66.0021C22.8693 65.2518 22.0961 64.8681 21.4432 65.2404C21.0422 65.4695 20.9105 65.8418 20.9105 66.2942C20.9162 74.2438 20.9162 82.1933 20.9048 90.1429C20.9048 90.6526 20.8762 91.1738 20.7673 91.6721C20.3721 93.4533 19.3699 94.782 17.6688 95.5151C17.1591 95.7385 16.5921 95.8301 16.048 95.9847C15.6528 95.9847 15.2576 95.9847 14.8624 95.9847C14.8052 95.9618 14.7479 95.9275 14.6849 95.9217C13.3504 95.7499 12.268 95.1543 11.4948 94.0317C10.7101 92.8977 10.4696 91.6205 10.4696 90.2746C10.4696 73.1899 10.4696 56.111 10.4696 39.0264C10.4696 38.8946 10.4753 38.7629 10.4638 38.6312C10.4409 38.2131 10.1088 37.8007 9.70784 37.6919C9.27829 37.5773 8.77428 37.7434 8.57383 38.1443C8.45355 38.3849 8.40773 38.6827 8.40773 38.9576C8.40201 46.7525 8.40201 54.5532 8.39628 62.3481C8.39628 62.6745 8.38482 63.0067 8.32182 63.3275C7.98964 65.0915 6.53489 66.4947 4.81669 66.7238C2.97822 66.97 1.25429 66.0651 0.458187 64.3813C0.234821 63.9059 0.148911 63.3675 0 62.8578C0.0229094 53.276 0.0229094 43.6827 0.0229094 34.0894Z" fill="#16736F"/>
<path d="M43.8673 37.5887C45.2762 37.5887 46.6507 37.5887 48.0482 37.5887C48.0482 50.7902 48.0482 63.9688 48.0482 77.1761C61.2669 77.1761 74.457 77.1761 87.6757 77.1761C87.6757 54.2552 87.6757 31.3344 87.6757 8.39071C74.4799 8.39071 61.2956 8.39071 48.0654 8.39071C48.0654 11.8443 48.0654 15.2922 48.0654 18.7686C46.645 18.7686 45.2762 18.7686 43.8673 18.7686C43.8673 18.6369 43.8673 18.5166 43.8673 18.4021C43.8673 14.4044 43.8673 10.4067 43.8673 6.40905C43.8673 5.07458 44.7493 4.19257 46.0837 4.19257C60.6083 4.19257 75.1328 4.19257 89.6516 4.19257C90.9746 4.19257 91.8452 5.05739 91.8624 6.38041C91.8624 6.50068 91.8624 6.62096 91.8624 6.74123C91.8624 30.6701 91.8624 54.6046 91.8681 78.5334C91.8681 78.8713 91.9311 79.2322 92.0571 79.5472C93.3114 82.6571 94.5828 85.7613 95.8486 88.8713C96.3583 90.1198 95.7226 91.4199 94.4339 91.7521C94.2048 91.8094 93.9586 91.8151 93.718 91.8151C76.4787 91.8209 59.2394 91.8209 42.0001 91.8151C40.8432 91.8151 40.0357 91.2539 39.7722 90.263C39.6462 89.7934 39.6863 89.3352 39.8696 88.8827C41.1697 85.6124 42.4698 82.3421 43.7642 79.0718C43.8329 78.8943 43.8615 78.6938 43.8615 78.5048C43.8673 65.0341 43.8673 51.5634 43.8673 38.0927C43.8673 37.9381 43.8673 37.7834 43.8673 37.5887Z" fill="#16736F"/>
<path d="M56.4032 16.7466C56.4032 17.4224 56.4032 18.0753 56.4032 18.7569C55.0057 18.7569 53.6369 18.7569 52.2051 18.7569C52.2051 18.6652 52.2051 18.5564 52.2051 18.4533C52.2051 17.2048 52.2051 15.9562 52.2051 14.7076C52.2108 13.419 53.1043 12.5312 54.3929 12.5312C63.3619 12.5312 72.3367 12.5312 81.3057 12.5312C82.5657 12.5312 83.4076 13.3102 83.505 14.5645C83.5107 14.6733 83.5107 14.7821 83.5107 14.8909C83.5107 28.6136 83.5107 42.3363 83.5164 56.0648C83.5164 56.878 83.2931 57.571 82.6001 58.0579C82.1591 58.3671 81.6608 58.4416 81.1396 58.4416C76.6723 58.4416 72.1992 58.4416 67.7319 58.4416C63.339 58.4416 58.9462 58.4416 54.5533 58.4416C53.9233 58.4416 53.3448 58.3156 52.8694 57.8574C52.4227 57.4221 52.2051 56.8952 52.2051 56.2767C52.2051 53.3214 52.2051 50.3603 52.2051 47.405C52.2051 44.2722 52.2051 41.1393 52.2051 38.0065C52.2051 37.8747 52.2051 37.7487 52.2051 37.5941C53.6025 37.5941 54.9771 37.5941 56.3918 37.5941C56.3918 43.1382 56.3918 48.6822 56.3918 54.2664C56.5464 54.2664 56.6667 54.2664 56.7812 54.2664C64.1638 54.2664 71.5463 54.2664 78.9288 54.2664C79.3469 54.2664 79.3469 54.2664 79.3469 53.8368C79.3469 41.6032 79.3469 29.3696 79.3469 17.136C79.3469 17.0158 79.3469 16.8955 79.3469 16.7523C71.7009 16.7466 64.0779 16.7466 56.4032 16.7466Z" fill="#16736F"/>
<path d="M20.9234 20.8762C15.1674 20.8762 10.4767 16.1855 10.4824 10.4352C10.4824 4.69642 15.1903 -0.00572211 20.9348 5.2265e-06C26.6679 0.00573257 31.3929 4.73079 31.3586 10.4696C31.3242 16.2828 26.6163 20.8762 20.9234 20.8762Z" fill="#16736F"/>
</svg>
