<svg xmlns="http://www.w3.org/2000/svg" width="1728" height="64" fill="none" viewBox="0 0 1728 64"><mask id="mask0_1903_1150" width="1742" height="64" x="-8" y="0" maskUnits="userSpaceOnUse" style="mask-type:luminance"><path fill="#fff" d="M1733.9 0H-8v64h1741.9V0Z"/></mask><g mask="url(#mask0_1903_1150)"><path fill="#F15849" d="m1233 68.507 61.93-122.09 53.15 127.7s-54.12-4.855-115.08-5.61ZM1077.18 83.934l38.74-130.977 75.48 116.418s-46.26 2.34-114.22 14.56ZM1501.2 55.81c-23.01-7.426-43.83-12.467-67.53-16.352l5.6-25.09c25.07 4.106 44.16 8.729 68.49 16.581l-6.56 24.86ZM1587.28 4.556l-36.58 92.416 105.98-64.633c-28.28-13.083-69.4-27.783-69.4-27.783Zm10.12 22.748c5.9 2.227 12.96 4.937 20.37 7.889l-30.97 18.892 10.6-26.781ZM1668.29 37.522l18.54 121.087 48-87.24s-38.06-21.197-66.54-33.847Zm22.68 30.724c7.18 3.662 13.97 7.232 19.64 10.257l-14.13 25.687-5.51-35.944ZM824.253 34.24c-82.545 37.33-142.836 79.598-142.836 79.598l69.906 102.777c66.588-42.914 126.074-70.573 126.074-70.573L824.253 34.239Zm-9.767 27.242 35.651 74.996c-20.129 10.144-54.467 28.273-93.021 52.156l-47.007-69.112c20.534-13.118 58.166-35.884 104.377-58.04Z"/><path fill="#F3B719" d="m1370.6 77.604-52.63-129.283s38.49 2.115 69.89 7.065L1370.6 77.603ZM1542.05 119.859l113.1-69.485 20.89 130.146s-66.06-38.295-133.99-60.661ZM892.098 139.503l32.429-126.948 106.963 79.892s-74.643 17.137-139.392 47.056ZM1053.57 89.872l39.2-133.653s-38.08 5.758-68.84 13.665l29.64 119.988Z"/><path fill="#87C1D9" d="m1407.92-41.571-22.07 121.496c78.44 14.249 140.96 34.672 140.96 34.672l40.56-116.626c-86.03-29.098-159.45-39.542-159.45-39.542Zm16.53 23.68c23.87 4.411 67.31 13.513 116.65 28.953l-27.15 78.089c-21.52-6.307-59.28-16.615-104.28-25.628l14.78-81.413ZM1229.47-55.077c-62.59 0-87 4.155-87 4.155l72.08 119.815 59.89-123.333c-16.78-.451-31.73-.637-44.97-.637Zm.01 20.586c4.06 0 8.21.019 12.44.056l-29.29 60.32-35.59-59.161c12.93-.676 30.21-1.215 52.44-1.215ZM912.886-1.515c-29.616 9.732-69.631 27.002-69.631 27.002l38.911 91.608 30.72-118.61Zm-25.689 28.31-9.119 35.203-11.454-26.97c5.942-2.44 13.058-5.31 20.573-8.233ZM996.778-26.33S954.379-15.83 924.919-5.65l98.881 74.935-27.022-95.615ZM984.42-4.707l7.84 27.739-28.933-21.926a1209.927 1209.927 0 0 1 21.093-5.813Z"/><path fill="#F15849" d="M566.659 133.345c82.544-37.332 142.834-79.599 142.834-79.599L639.589-49.029C573.001-6.115 513.512 21.54 513.512 21.54l53.147 111.804Zm9.767-27.241-35.651-74.998c20.127-10.142 54.465-28.271 93.021-52.156l47.005 69.112c-20.534 13.118-58.165 35.884-104.375 58.042ZM195.198 62.367c23.026 0 42.572-17.302 44.51-40.201 2.04-24.153-16.284-45.384-40.93-47.421a46.073 46.073 0 0 0-3.814-.155c-23.028 0-42.572 17.3-44.507 40.2-2.043 24.151 16.28 45.381 40.928 47.42a46.17 46.17 0 0 0 3.813.157Zm0-15.66a30.14 30.14 0 0 1-2.535-.105c-7.964-.657-15.135-4.327-20.19-10.33-4.795-5.693-7.094-12.853-6.478-20.158 1.227-14.504 13.95-25.867 28.969-25.867.84 0 1.692.037 2.535.106 7.964.66 15.135 4.327 20.191 10.332 4.795 5.693 7.096 12.849 6.478 20.156-1.228 14.506-13.95 25.867-28.97 25.867ZM248.432-12.646l10.659 70.724s31.281-3.815 53.276-8.526l-63.935-62.199ZM354.108-34.389l19.522 68.895s-30.187 8.865-52.256 13.243l32.734-82.138Z"/><path fill="#F3B719" d="M573.495 46.653c21.822-10.24 40.393-20.726 60.211-33.999l13.688 21.934c-20.965 14.04-37.994 23.654-61.067 34.482l-12.832-22.417ZM498.814 28.081 466.385 155.03 359.416 75.137s74.65-17.138 139.398-47.056ZM195.119 32.737c7.48 0 13.83-5.621 14.46-13.061.663-7.846-5.291-14.745-13.296-15.406a15.902 15.902 0 0 0-1.239-.05c-7.483 0-13.833 5.622-14.461 13.06-.663 7.846 5.291 14.742 13.298 15.406.414.035.827.05 1.238.05ZM132.077 22.727c.472 26.408 24.027 41.076 24.027 41.076-21.618.106-45.853-1.47-63.593-2.942 0 0-49.282-3.184-88.657-10.456 0 0 25.832-10.269 31.074-36.168 6.667-32.95-13.895-50.285-13.895-50.285s24.57 4.582 53.71 7.532l.044-.472c6.7.864 13.492 1.57 20.14 2.148 1.912.12 3.823.228 5.729.322l-.014.143c29.204 2.25 54.21 2.084 54.21 2.084s-23.37 13.42-22.775 47.019ZM390.896 29.075s39.208-8.756 127.867-48.188l-39.025-79.262s-43.376 23.883-113.655 42.896l24.813 84.554Zm10.055-18.219-16.468-56.12c41.389-12.165 72.062-25.372 88.581-33.192l25.594 51.98c-49.337 21.4-81.293 32.303-97.707 37.332Z"/><path fill="#87C1D9" d="M-17.007 209.155 5.06 87.66c-78.435-14.248-140.962-34.674-140.962-34.674l-40.554 116.627c86.025 29.097 159.45 39.542 159.45 39.542Zm-16.536-23.681c-23.863-4.409-67.307-13.512-116.647-28.953l27.153-78.086c21.516 6.305 59.277 16.612 104.278 25.628l-14.784 81.411ZM652.22-57.704 781.453.028S752.225 24.61 726.095 42.34L652.22-57.704ZM478.024 169.098c29.618-9.729 69.631-27.001 69.631-27.001l-38.909-91.609-30.722 118.61Zm25.691-28.31 9.119-35.2 11.454 26.969a1207.53 1207.53 0 0 1-20.573 8.231ZM-21.983 44.416c23.024 0 42.572-17.302 44.508-40.201C24.567-19.937 6.24-41.17-18.403-43.206a46.159 46.159 0 0 0-3.816-.16c-23.026 0-42.572 17.305-44.507 40.204-2.043 24.152 16.284 45.384 40.928 47.419 1.278.108 2.553.16 3.815.16Zm0-15.661c-.84 0-1.693-.035-2.537-.104-7.964-.66-15.133-4.327-20.192-10.332-4.793-5.693-7.092-12.849-6.474-20.156 1.225-14.506 13.95-25.867 28.967-25.867.84 0 1.694.035 2.535.106C-11.72-26.94-4.549-23.27.51-17.268 5.302-11.575 7.603-4.415 6.985 2.89 5.759 17.394-6.967 28.755-21.983 28.755ZM314.233 36.637l35.855-88.13S297.446-35.05 246.084-30.096l68.149 66.733Zm-4.667-22.527-35.598-34.86c20.685-3.3 39.963-7.697 54.409-11.375L309.566 14.11Z"/></g></svg>