<svg width="69" height="69" viewBox="0 0 69 69" fill="none" xmlns="http://www.w3.org/2000/svg">
<path d="M31.5213 27.0102C31.5213 27.1501 31.5213 27.2571 31.5213 27.3682C31.5213 37.0479 31.5213 46.7277 31.5171 56.4074C31.5171 56.5432 31.4966 56.6913 31.4472 56.8148C30.5171 59.1648 29.5828 61.5147 28.6486 63.8647C28.521 64.1898 28.4881 64.5191 28.5787 64.8565C28.7721 65.5685 29.3483 65.9719 30.1796 65.9719C42.5673 65.9719 54.9551 65.9719 67.3428 65.9719C67.5156 65.9719 67.6926 65.9677 67.8572 65.9266C68.7832 65.6879 69.2401 64.7537 68.8738 63.8565C67.9642 61.6259 67.0506 59.3952 66.1493 57.1564C66.0588 56.93 66.0135 56.6708 66.0135 56.428C66.0053 39.2333 66.0094 22.0345 66.0094 4.83983C66.0094 4.75341 66.0094 4.66698 66.0094 4.58055C65.997 3.62987 65.3715 3.00842 64.4208 3.00842C53.9838 3.00842 43.5468 3.00842 33.114 3.00842C32.1551 3.00842 31.5213 3.64221 31.5213 4.60113C31.5213 7.47377 31.5213 10.3464 31.5213 13.219C31.5213 13.3014 31.5213 13.3878 31.5213 13.4824C32.5337 13.4824 33.5214 13.4824 34.5379 13.4824C34.5379 10.9843 34.5379 8.50677 34.5379 6.0251C44.0448 6.0251 53.5187 6.0251 63.0009 6.0251C63.0009 22.5119 63.0009 38.9864 63.0009 55.4526C53.5023 55.4526 44.0242 55.4526 34.5256 55.4526C34.5256 45.9622 34.5256 36.4923 34.5256 27.0061C33.5173 27.0102 32.5296 27.0102 31.5213 27.0102Z" fill="#0F7874"/>
<path d="M40.5302 12.0339C46.045 12.0339 51.5228 12.0339 57.017 12.0339C57.017 12.1409 57.017 12.2232 57.017 12.3096C57.017 21.1004 57.017 29.8911 57.017 38.6819C57.017 38.9906 57.017 38.9906 56.7166 38.9906C51.4117 38.9906 46.1068 38.9906 40.8019 38.9906C40.7195 38.9906 40.6331 38.9906 40.522 38.9906C40.522 34.9779 40.522 30.9941 40.522 27.0103C39.5055 27.0103 38.5177 27.0103 37.5135 27.0103C37.5135 27.1214 37.5135 27.2119 37.5135 27.3066C37.5135 29.5578 37.5135 31.809 37.5135 34.0602C37.5135 36.1838 37.5135 38.3115 37.5135 40.4351C37.5135 40.8837 37.6699 41.2582 37.9909 41.571C38.3325 41.9002 38.7482 41.9908 39.2009 41.9908C42.3575 41.9908 45.5141 41.9908 48.6707 41.9908C51.8808 41.9908 55.0951 41.9908 58.3052 41.9908C58.6797 41.9908 59.0419 41.9373 59.3546 41.715C59.8526 41.3652 60.0131 40.8672 60.0131 40.2828C60.009 30.422 60.009 20.5612 60.009 10.6963C60.009 10.6181 60.009 10.5399 60.0049 10.4617C59.9349 9.56044 59.33 9.00073 58.4245 9.00073C51.9796 9.00073 45.5306 9.00073 39.0857 9.00073C38.1556 9.00073 37.5135 9.63864 37.5135 10.5646C37.5094 11.4618 37.5135 12.359 37.5135 13.2562C37.5135 13.3303 37.5135 13.4043 37.5135 13.4743C38.5383 13.4743 39.526 13.4743 40.5302 13.4743C40.5302 12.9887 40.5302 12.5195 40.5302 12.0339Z" fill="#0F7874"/>
<path d="M15.0343 15.0011C19.1252 15.0011 22.5081 11.7004 22.5328 7.52319C22.5575 3.39943 19.1622 0.00411928 15.0426 3.75564e-06C10.9147 -0.00411177 7.53174 3.37474 7.53174 7.49849C7.52763 11.6346 10.8982 15.0052 15.0343 15.0011Z" fill="#0F7874"/>
<path d="M0.0164621 24.4957C0.0946571 23.9606 0.123466 23.4133 0.259278 22.8947C1.11942 19.6064 3.20599 17.5404 6.50253 16.7009C7.55199 16.4334 8.62614 16.5033 9.69206 16.5074C9.77026 16.5074 9.87315 16.635 9.91842 16.7256C10.9514 18.7915 11.9762 20.8575 13.0051 22.9277C13.4248 23.7713 13.8446 24.6109 14.2768 25.4793C13.9352 25.4957 13.6142 25.4916 13.3014 25.5287C12.6059 25.611 12.0544 26.1995 12.0503 26.9033C12.0379 28.9651 12.0379 31.027 12.0503 33.0889C12.0544 33.8173 12.6511 34.4429 13.3713 34.4635C14.4496 34.4964 15.5279 34.5005 16.6061 34.4717C17.4334 34.447 18.0095 33.8297 18.0137 33.0066C18.026 30.9982 18.026 28.9939 18.0137 26.9856C18.0095 26.1295 17.3799 25.5245 16.5156 25.4999C16.281 25.4916 16.0464 25.4999 15.7789 25.4999C15.8777 25.2982 15.9559 25.1336 16.0423 24.9648C17.421 22.2198 18.8038 19.4788 20.1784 16.7297C20.269 16.5445 20.376 16.491 20.5735 16.491C26.9073 16.4951 33.2452 16.4951 39.579 16.4951C41.1141 16.4951 42.2911 17.1165 43.0607 18.4582C44.246 20.5365 43.0484 23.3104 40.7231 23.8701C40.3692 23.9565 39.9947 23.9977 39.6284 23.9977C34.554 24.0059 29.4754 24.0018 24.401 24.0018C24.294 24.0018 24.1828 24.0018 24.0347 24.0018C24.0347 24.1376 24.0347 24.2487 24.0347 24.364C24.0347 37.8464 24.0347 51.3248 24.0347 64.8073C24.0347 65.655 23.9153 66.4782 23.5038 67.2354C22.9688 68.2272 22.1292 68.7705 21.0221 68.9269C20.9604 68.9351 20.9028 68.9598 20.841 68.9763C20.5571 68.9763 20.2731 68.9763 19.9891 68.9763C19.9644 68.9598 19.9397 68.9351 19.9109 68.931C17.9149 68.7005 16.5321 66.9885 16.528 64.9883C16.5197 59.2595 16.5238 53.5307 16.5238 47.8019C16.5238 47.6743 16.5238 47.5508 16.5074 47.4274C16.4333 46.8882 15.8777 46.6125 15.4085 46.88C15.1204 47.0446 15.0258 47.3121 15.0258 47.6373C15.0299 53.3496 15.0299 59.062 15.0217 64.7743C15.0217 65.1406 15.0011 65.5151 14.9229 65.8732C14.6389 67.1531 13.9187 68.1079 12.6964 68.6347C12.3301 68.7952 11.9227 68.861 11.5317 68.9722C11.2477 68.9722 10.9638 68.9722 10.6798 68.9722C10.6386 68.9557 10.5975 68.931 10.5522 68.9269C9.59329 68.8034 8.81546 68.3754 8.25986 67.5688C7.69603 66.7539 7.52318 65.8361 7.52318 64.869C7.52318 52.5924 7.52318 40.3199 7.52318 28.0433C7.52318 27.9486 7.5273 27.8539 7.51907 27.7593C7.5026 27.4588 7.2639 27.1625 6.97582 27.0843C6.66715 27.002 6.30499 27.1214 6.16094 27.4095C6.07452 27.5823 6.04159 27.7963 6.04159 27.9939C6.03748 33.5951 6.03748 39.2004 6.03336 44.8017C6.03336 45.0363 6.02513 45.275 5.97986 45.5054C5.74116 46.773 4.69582 47.7813 3.46116 47.9459C2.14007 48.1229 0.9013 47.4727 0.329242 46.2627C0.168737 45.9211 0.107004 45.5342 0 45.168C0.0164621 38.2827 0.0164621 31.3892 0.0164621 24.4957Z" fill="#0F7874"/>
<path d="M31.5202 27.0102C32.5326 27.0102 33.5203 27.0102 34.5245 27.0102C34.5245 36.4965 34.5245 45.9663 34.5245 55.4567C44.0232 55.4567 53.5012 55.4567 62.9999 55.4567C62.9999 38.9864 62.9999 22.5161 62.9999 6.02925C53.5177 6.02925 44.0437 6.02925 34.5369 6.02925C34.5369 8.51092 34.5369 10.9885 34.5369 13.4866C33.5162 13.4866 32.5326 13.4866 31.5202 13.4866C31.5202 13.3919 31.5202 13.3055 31.5202 13.2232C31.5202 10.3506 31.5202 7.47792 31.5202 4.60528C31.5202 3.64636 32.154 3.01257 33.1129 3.01257C43.5499 3.01257 53.9869 3.01257 64.4197 3.01257C65.3704 3.01257 65.996 3.63402 66.0083 4.5847C66.0083 4.67113 66.0083 4.75756 66.0083 4.84398C66.0083 22.0387 66.0083 39.2374 66.0124 56.4321C66.0124 56.6749 66.0577 56.9342 66.1482 57.1605C67.0495 59.3953 67.9632 61.6259 68.8727 63.8606C69.239 64.7578 68.7822 65.692 67.8562 65.9307C67.6916 65.9719 67.5146 65.976 67.3417 65.976C54.954 65.9801 42.5663 65.9801 30.1785 65.976C29.3472 65.976 28.7669 65.5727 28.5776 64.8607C28.4871 64.5232 28.5159 64.194 28.6476 63.8689C29.5818 61.5189 30.516 59.1689 31.4461 56.819C31.4955 56.6914 31.5161 56.5473 31.5161 56.4115C31.5202 46.7318 31.5202 37.0521 31.5202 27.3724C31.5202 27.2613 31.5202 27.1501 31.5202 27.0102Z" fill="#0F7874"/>
<path d="M40.5299 12.0337C40.5299 12.5194 40.5299 12.9885 40.5299 13.4783C39.5257 13.4783 38.5421 13.4783 37.5132 13.4783C37.5132 13.4124 37.5132 13.3342 37.5132 13.2602C37.5132 12.363 37.5132 11.4658 37.5132 10.5686C37.5173 9.64261 38.1593 9.0047 39.0853 9.0047C45.5302 9.0047 51.9793 9.0047 58.4242 9.0047C59.3296 9.0047 59.9346 9.56441 60.0045 10.4657C60.0086 10.5439 60.0087 10.6221 60.0087 10.7003C60.0087 20.5611 60.0086 30.4219 60.0128 40.2868C60.0128 40.8712 59.8523 41.3692 59.3543 41.719C59.0374 41.9413 58.6793 41.9948 58.3048 41.9948C55.0947 41.9948 51.8805 41.9948 48.6704 41.9948C45.5138 41.9948 42.3572 41.9948 39.2005 41.9948C38.7478 41.9948 38.3322 41.9042 37.9906 41.575C37.6696 41.2622 37.5132 40.8836 37.5132 40.4391C37.5132 38.3155 37.5132 36.1877 37.5132 34.0641C37.5132 31.8129 37.5132 29.5618 37.5132 27.3106C37.5132 27.2159 37.5132 27.1254 37.5132 27.0142C38.5174 27.0142 39.5051 27.0142 40.5216 27.0142C40.5216 30.9981 40.5216 34.9819 40.5216 38.9945C40.6328 38.9945 40.7192 38.9945 40.8015 38.9945C46.1064 38.9945 51.4113 38.9945 56.7162 38.9945C57.0167 38.9945 57.0167 38.9945 57.0167 38.6859C57.0167 29.8951 57.0167 21.1043 57.0167 12.3136C57.0167 12.2272 57.0167 12.1407 57.0167 12.0378C51.5224 12.0337 46.0447 12.0337 40.5299 12.0337Z" fill="#0F7874"/>
<path d="M15.0343 15.0011C10.8982 15.0011 7.52763 11.6305 7.53174 7.49849C7.53174 3.37473 10.9147 -0.00411177 15.0426 3.75564e-06C19.1622 0.00411928 22.5575 3.39943 22.5328 7.52319C22.5081 11.7004 19.1252 15.0011 15.0343 15.0011Z" fill="#0F7874"/>
</svg>
