<svg xmlns="http://www.w3.org/2000/svg" width="103" height="103" fill="none" viewBox="0 0 103 103"><path fill="#172840" d="M99.982 71.617h-.2V14.283a7.049 7.049 0 0 0-7.042-7.04H10.26a7.049 7.049 0 0 0-7.041 7.04v57.334h-.201A3.018 3.018 0 0 0 0 74.635v6.035c0 8.32 6.768 15.088 15.088 15.088h72.824c8.32 0 15.088-6.769 15.088-15.088v-6.035a3.018 3.018 0 0 0-3.018-3.018ZM9.254 14.283c0-.554.451-1.006 1.006-1.006h82.48c.555 0 1.006.452 1.006 1.006v57.334h-24.14a3.018 3.018 0 0 0-2.863 2.064l-1.324 3.971H37.58l-1.324-3.971a3.018 3.018 0 0 0-2.862-2.064H9.254V14.283Zm87.71 66.387c0 4.992-4.06 9.053-9.052 9.053H15.088c-4.992 0-9.053-4.061-9.053-9.053v-3.018H31.22l1.325 3.972a3.018 3.018 0 0 0 2.862 2.064h32.188a3.018 3.018 0 0 0 2.862-2.064l1.325-3.972h25.184v3.018Z"/><path fill="#F25849" d="M67.594 65.582a3.018 3.018 0 0 0 3.017-3.017V58.54c0-6.164-3.718-11.474-9.027-13.813a13.017 13.017 0 0 0 2.992-8.316c0-7.21-5.866-13.076-13.076-13.076-7.21 0-13.076 5.866-13.076 13.076 0 3.156 1.124 6.054 2.992 8.316-5.31 2.339-9.027 7.648-9.027 13.813v4.024a3.018 3.018 0 0 0 3.017 3.017h32.188ZM51.5 29.372a7.049 7.049 0 0 1 7.041 7.04 7.049 7.049 0 0 1-7.041 7.041 7.049 7.049 0 0 1-7.041-7.04A7.049 7.049 0 0 1 51.5 29.37ZM38.424 58.54c0-4.992 4.06-9.053 9.053-9.053h8.046c4.992 0 9.053 4.061 9.053 9.053v1.006H38.424V58.54Z"/><path fill="#F2B706" d="M18.307 25.348a3.018 3.018 0 1 0 0-6.036 3.018 3.018 0 0 0 0 6.036Z"/></svg>