<svg xmlns="http://www.w3.org/2000/svg" width="128" height="128" fill="none" viewBox="0 0 128 128"><g clip-path="url(#clip0_2813_160)"><path fill="#fff" d="M116.75 30.25h-4V19a3.75 3.75 0 0 0-3.75-3.75H52.75v-4C52.75 5.047 47.703 0 41.5 0S30.25 5.047 30.25 11.25v4H19A3.75 3.75 0 0 0 15.25 19v56.25h-4C5.047 75.25 0 80.297 0 86.5s5.047 11.25 11.25 11.25h4V109a3.75 3.75 0 0 0 3.75 3.75h56.25v4c0 6.203 5.047 11.25 11.25 11.25s11.25-5.047 11.25-11.25v-4H109a3.75 3.75 0 0 0 3.75-3.75V52.75h4c6.203 0 11.25-5.047 11.25-11.25s-5.047-11.25-11.25-11.25ZM34 22.75A3.75 3.75 0 0 0 37.75 19v-7.75A3.754 3.754 0 0 1 41.5 7.5a3.754 3.754 0 0 1 3.75 3.75V19A3.75 3.75 0 0 0 49 22.75h11.25V34A3.75 3.75 0 0 0 64 37.75h7.5a3.754 3.754 0 0 1 3.75 3.75 3.754 3.754 0 0 1-3.75 3.75H64A3.75 3.75 0 0 0 60.25 49v11.25h-7.5V56.5c0-6.203-5.047-11.25-11.25-11.25S30.25 50.297 30.25 56.5v3.75h-7.5v-37.5H34Zm26.25 82.5h-37.5V94A3.75 3.75 0 0 0 19 90.25h-7.75A3.754 3.754 0 0 1 7.5 86.5a3.754 3.754 0 0 1 3.75-3.75H19A3.75 3.75 0 0 0 22.75 79V67.75H34A3.75 3.75 0 0 0 37.75 64v-7.5a3.754 3.754 0 0 1 3.75-3.75 3.754 3.754 0 0 1 3.75 3.75V64A3.75 3.75 0 0 0 49 67.75h11.25v7.5H56.5c-6.203 0-11.25 5.047-11.25 11.25s5.047 11.25 11.25 11.25h3.75v7.5Zm33.75 0a3.75 3.75 0 0 0-3.75 3.75v7.75a3.754 3.754 0 0 1-3.75 3.75 3.754 3.754 0 0 1-3.75-3.75V109a3.75 3.75 0 0 0-3.75-3.75H67.75V94A3.75 3.75 0 0 0 64 90.25h-7.5a3.754 3.754 0 0 1-3.75-3.75 3.754 3.754 0 0 1 3.75-3.75H64A3.75 3.75 0 0 0 67.75 79V67.75h7.5v3.75c0 6.203 5.047 11.25 11.25 11.25s11.25-5.047 11.25-11.25v-3.75h7.5v37.5H94Zm22.75-60H109a3.75 3.75 0 0 0-3.75 3.75v11.25H94A3.75 3.75 0 0 0 90.25 64v7.5a3.754 3.754 0 0 1-3.75 3.75 3.754 3.754 0 0 1-3.75-3.75V64A3.75 3.75 0 0 0 79 60.25H67.75v-7.5h3.75c6.203 0 11.25-5.047 11.25-11.25S77.703 30.25 71.5 30.25h-3.75v-7.5h37.5V34a3.75 3.75 0 0 0 3.75 3.75h7.75a3.754 3.754 0 0 1 3.75 3.75 3.754 3.754 0 0 1-3.75 3.75Z"/></g><defs><clipPath id="clip0_2813_160"><path fill="#fff" d="M0 0h128v128H0z"/></clipPath></defs></svg>