<svg xmlns="http://www.w3.org/2000/svg" width="103" height="103" fill="none" viewBox="0 0 103 103"><g clip-path="url(#clip0_2800_32715)"><path fill="#172840" d="M93.771 27.427a13.017 13.017 0 0 0 2.993-8.316c0-7.21-5.866-13.076-13.076-13.076-7.21 0-13.077 5.866-13.077 13.076 0 3.156 1.124 6.055 2.993 8.316a15.122 15.122 0 0 0-3.937 2.526 15.17 15.17 0 0 0-8.083-8.56 13.017 13.017 0 0 0 2.992-8.317C64.576 5.866 58.71 0 51.5 0c-7.21 0-13.076 5.866-13.076 13.076 0 3.156 1.124 6.054 2.992 8.316a15.17 15.17 0 0 0-8.083 8.561 15.126 15.126 0 0 0-3.937-2.526 13.018 13.018 0 0 0 2.993-8.316c0-7.21-5.866-13.076-13.077-13.076-7.21 0-13.076 5.866-13.076 13.076 0 3.156 1.124 6.055 2.993 8.316C3.919 29.766.2 35.076.2 41.24v10.461c0 13.703 5.336 26.585 15.025 36.274C24.916 97.665 37.798 103 51.5 103c13.702 0 26.585-5.336 36.274-15.025 9.689-9.69 15.025-22.571 15.025-36.274v-10.46c0-6.165-3.718-11.475-9.028-13.814ZM83.687 12.07a7.049 7.049 0 0 1 7.041 7.041 7.049 7.049 0 0 1-7.04 7.041 7.049 7.049 0 0 1-7.041-7.04 7.049 7.049 0 0 1 7.04-7.042Zm-4.023 20.117h8.047c4.992 0 9.053 4.062 9.053 9.053v7.444H70.61V41.24c0-4.991 4.061-9.053 9.053-9.053ZM48.482 54.72v18.105H32.887c-1.419-5.572-2.26-11.708-2.461-18.105h18.056Zm0 24.14v17.595c-4.143-1.39-8.161-5.579-11.353-11.962a52.538 52.538 0 0 1-2.398-5.633h13.751Zm6.036 17.595V78.86h13.751a52.477 52.477 0 0 1-2.398 5.633c-3.192 6.383-7.21 10.572-11.353 11.962Zm0-23.63V54.72h18.056c-.202 6.397-1.042 12.533-2.46 18.105H54.517ZM51.5 6.035a7.049 7.049 0 0 1 7.041 7.041 7.049 7.049 0 0 1-7.041 7.041 7.049 7.049 0 0 1-7.041-7.04A7.049 7.049 0 0 1 51.5 6.034Zm-13.076 29.17c0-4.992 4.06-9.053 9.053-9.053h8.046c4.992 0 9.053 4.061 9.053 9.053v13.479H38.424V35.205ZM19.313 12.07a7.049 7.049 0 0 1 7.04 7.041 7.049 7.049 0 0 1-7.04 7.041 7.049 7.049 0 0 1-7.041-7.04 7.049 7.049 0 0 1 7.04-7.042ZM6.236 41.24c0-4.991 4.061-9.053 9.053-9.053h8.047c4.992 0 9.053 4.062 9.053 9.053v7.444H6.236V41.24ZM24.387 54.72c.19 6.453.983 12.553 2.278 18.105H11.478A44.929 44.929 0 0 1 6.336 54.72h18.052Zm-9.072 24.14H28.34c1.996 6.152 4.663 11.407 7.823 15.428-8.365-3.022-15.592-8.443-20.848-15.428Zm51.522 15.428c3.16-4.02 5.827-9.276 7.823-15.428h13.025c-5.256 6.986-12.483 12.406-20.849 15.428Zm24.685-21.463H76.335c1.295-5.552 2.088-11.652 2.277-18.105h18.052a44.93 44.93 0 0 1-5.142 18.105Z"/></g><defs><clipPath id="clip0_2800_32715"><path fill="#fff" d="M0 0h103v103H0z"/></clipPath></defs></svg>