<svg xmlns="http://www.w3.org/2000/svg" width="90" height="90" fill="none" viewBox="0 0 90 90"><g clip-path="url(#clip0_2800_32719)"><path fill="#172840" d="M82.112 71.778a11.374 11.374 0 0 0 2.615-7.266c0-6.3-5.126-11.426-11.426-11.426s-11.426 5.126-11.426 11.426c0 2.757.982 5.29 2.615 7.266a13.2 13.2 0 0 0-2.848 1.713l-9.66-10.539a7.86 7.86 0 0 0 .928-3.714c0-3.437-2.204-6.368-5.273-7.456V36.914h11.425a2.637 2.637 0 0 0 2.637-2.637v-3.515c0-5.387-3.248-10.026-7.888-12.07a11.373 11.373 0 0 0 2.615-7.266C56.426 5.126 51.3 0 45 0S33.574 5.126 33.574 11.426c0 2.757.982 5.29 2.615 7.266-4.64 2.044-7.888 6.683-7.888 12.07v3.515a2.637 2.637 0 0 0 2.637 2.637h11.425v14.868c-3.069 1.088-5.273 4.019-5.273 7.456 0 1.342.337 2.606.929 3.714l-9.66 10.54a13.194 13.194 0 0 0-2.849-1.714 11.375 11.375 0 0 0 2.615-7.266c0-6.3-5.126-11.426-11.426-11.426S5.273 58.212 5.273 64.512c0 2.757.983 5.29 2.615 7.266C3.248 73.822 0 78.461 0 83.848v3.515A2.637 2.637 0 0 0 2.637 90h28.125a2.637 2.637 0 0 0 2.636-2.637v-3.515a13.1 13.1 0 0 0-1.605-6.3l10.111-11.031a7.865 7.865 0 0 0 3.096.631 7.865 7.865 0 0 0 3.096-.631l10.111 11.031a13.1 13.1 0 0 0-1.605 6.3v3.515A2.637 2.637 0 0 0 59.238 90h28.125A2.637 2.637 0 0 0 90 87.363v-3.515c0-5.387-3.249-10.026-7.888-12.07ZM45 5.273a6.16 6.16 0 0 1 6.152 6.153A6.16 6.16 0 0 1 45 17.578a6.16 6.16 0 0 1-6.152-6.152A6.16 6.16 0 0 1 45 5.273ZM33.574 30.762c0-4.362 3.549-7.91 7.91-7.91h7.032c4.361 0 7.91 3.548 7.91 7.91v.879H33.574v-.88Zm39.727 27.597a6.16 6.16 0 0 1 6.152 6.153 6.16 6.16 0 0 1-6.152 6.152 6.16 6.16 0 0 1-6.153-6.152 6.16 6.16 0 0 1 6.153-6.153Zm-56.602 0a6.16 6.16 0 0 1 6.153 6.153 6.16 6.16 0 0 1-6.153 6.152 6.16 6.16 0 0 1-6.152-6.152 6.16 6.16 0 0 1 6.152-6.153Zm11.426 26.368H5.273v-.88c0-4.361 3.549-7.91 7.91-7.91h7.032c4.361 0 7.91 3.549 7.91 7.91v.88Zm14.238-25.489A2.64 2.64 0 0 1 45 56.602a2.64 2.64 0 0 1 2.637 2.636A2.64 2.64 0 0 1 45 61.875a2.64 2.64 0 0 1-2.637-2.637Zm42.364 25.489H61.875v-.88c0-4.361 3.549-7.91 7.91-7.91h7.031c4.362 0 7.91 3.549 7.91 7.91v.88Z"/></g><defs><clipPath id="clip0_2800_32719"><path fill="#fff" d="M0 0h90v90H0z"/></clipPath></defs></svg>