<svg xmlns="http://www.w3.org/2000/svg" width="113" height="113" fill="none" viewBox="0 0 113 113"><g fill="#fff" clip-path="url(#clip0_2813_148)"><path d="M103.096 90.121a14.28 14.28 0 0 0 3.283-9.123c0-7.91-6.436-14.346-14.346-14.346s-14.346 6.436-14.346 14.346a14.28 14.28 0 0 0 3.284 9.123c-5.826 2.566-9.905 8.391-9.905 15.154v4.414A3.31 3.31 0 0 0 74.377 113h35.312a3.31 3.31 0 0 0 3.311-3.311v-4.414c0-6.763-4.079-12.588-9.904-15.154ZM92.033 73.273c4.26 0 7.725 3.466 7.725 7.725 0 4.26-3.465 7.725-7.725 7.725s-7.724-3.466-7.724-7.725c0-4.26 3.465-7.725 7.724-7.725Zm14.346 33.106H77.687v-1.104c0-5.476 4.456-9.931 9.932-9.931h8.828c5.477 0 9.932 4.455 9.932 9.931v1.104ZM32.03 90.121a14.28 14.28 0 0 0 3.282-9.123c0-7.91-6.435-14.346-14.345-14.346-7.91 0-14.346 6.436-14.346 14.346a14.28 14.28 0 0 0 3.283 9.123C4.079 92.688 0 98.513 0 105.275v4.414A3.31 3.31 0 0 0 3.31 113h35.313a3.31 3.31 0 0 0 3.31-3.311v-4.414c0-6.763-4.078-12.588-9.904-15.154ZM20.966 73.273c4.26 0 7.724 3.466 7.724 7.725 0 4.26-3.465 7.725-7.724 7.725-4.26 0-7.725-3.466-7.725-7.725 0-4.26 3.465-7.725 7.725-7.725Zm14.346 33.106H6.62v-1.104c0-5.476 4.455-9.931 9.932-9.931h8.828c5.476 0 9.931 4.455 9.931 9.931v1.104ZM10.152 33.105h6.621a3.31 3.31 0 0 0 0-6.62h-6.62a3.31 3.31 0 0 0 0 6.62ZM92.916 29.795a3.31 3.31 0 0 0 3.31 3.31h6.622a3.31 3.31 0 0 0 0-6.62h-6.621a3.31 3.31 0 0 0-3.311 3.31ZM14.707 9.488l5.733 3.31a3.31 3.31 0 1 0 3.311-5.733l-5.734-3.31a3.31 3.31 0 0 0-3.31 5.733ZM89.249 52.525l5.734 3.31a3.31 3.31 0 0 0 3.31-5.733l-5.733-3.31a3.31 3.31 0 0 0-3.311 5.733ZM20.44 46.791l-5.734 3.31a3.31 3.31 0 0 0 3.311 5.735l5.734-3.31a3.31 3.31 0 0 0-3.31-5.735ZM92.56 12.799l5.733-3.311a3.31 3.31 0 0 0-3.31-5.734l-5.734 3.31a3.31 3.31 0 0 0 3.31 5.735ZM73.194 54.446c8.203-5.557 13.1-14.772 13.1-24.651C86.295 13.366 72.93 0 56.5 0 40.071 0 26.705 13.366 26.705 29.795c0 9.879 4.898 19.094 13.1 24.65 1.471.997 2.35 2.68 2.35 4.5v10.577c0 5.476 4.455 9.931 9.93 9.931h8.83c5.475 0 9.93-4.455 9.93-9.931V58.945c0-1.82.879-3.503 2.35-4.5Zm-12.28 18.386h-8.828a3.314 3.314 0 0 1-3.31-3.31V66.21h15.449v3.31a3.314 3.314 0 0 1-3.31 3.311Zm8.567-23.868c-3.291 2.23-5.256 5.961-5.256 9.981v.645H59.81V39.994l7.858-7.858a3.31 3.31 0 1 0-4.682-4.682L56.5 33.941l-6.487-6.487a3.31 3.31 0 0 0-4.682 4.682l7.858 7.858V59.59h-4.414v-.645c0-4.02-1.965-7.751-5.256-9.98-6.382-4.324-10.193-11.49-10.193-19.17C33.326 17.017 43.722 6.62 56.5 6.62c12.778 0 23.174 10.396 23.174 23.174 0 7.68-3.81 14.846-10.193 19.17Z"/></g><defs><clipPath id="clip0_2813_148"><path fill="#fff" d="M0 0h113v113H0z"/></clipPath></defs></svg>