<svg xmlns="http://www.w3.org/2000/svg" width="103" height="103" fill="none" viewBox="0 0 103 103"><g clip-path="url(#clip0_2800_32711)"><path fill="#172840" d="M0 91.594C0 97.884 5.117 103 11.406 103H92.94C98.488 103 103 98.488 103 92.942c0-5.547-4.512-10.059-10.059-10.059H58.742a4.028 4.028 0 0 1-4.023-4.023 4.028 4.028 0 0 1 4.023-4.024H83.89a3.018 3.018 0 0 0 0-6.035H58.742c-5.546 0-10.058 4.512-10.058 10.059 0 5.546 4.512 10.058 10.058 10.058h34.2a4.028 4.028 0 0 1 4.023 4.024 4.028 4.028 0 0 1-4.024 4.023H11.406a5.377 5.377 0 0 1-5.37-5.37c0-1.592.698-3.092 1.918-4.115l5.605-4.75c3.979 2.761 9.422 2.814 13.49-.187l43.447-32.06c4.002 2.803 9.546 2.703 13.463-.584l.77-.646.647.77a3.018 3.018 0 0 0 4.623-3.88l-.647-.77 5.394-4.526c9.772-8.2 11.051-22.82 2.852-32.593-8.2-9.772-22.821-11.05-32.593-2.851L59.61 9.929l-.647-.77a3.018 3.018 0 0 0-4.623 3.878l.646.771-.77.647c-3.917 3.286-4.979 8.728-2.913 13.156l-39.117 37.22c-3.67 3.492-4.56 8.877-2.514 13.28l-5.61 4.755A11.371 11.371 0 0 0 0 91.594Zm63.49-77.042 5.394-4.526c7.223-6.06 18.03-5.115 24.09 2.107 6.061 7.223 5.116 18.03-2.107 24.091l-5.394 4.526L63.49 14.552Zm-6.014 11.611a5.035 5.035 0 0 1 .62-7.085l.77-.647L80.85 44.629l-.77.647a5.035 5.035 0 0 1-7.086-.62L57.476 26.163Zm-.758 26.986L46.286 40.716l8.632-8.213 11.388 13.572-9.588 7.074Zm-33.796 9.798 18.983-18.063 9.948 11.855-21.085 15.559-7.846-9.35ZM15.92 76.79a5.558 5.558 0 0 1 .425-7.585l2.195-2.089 7.361 8.773-2.437 1.799a5.557 5.557 0 0 1-7.544-.898Z"/></g><defs><clipPath id="clip0_2800_32711"><path fill="#fff" d="M0 0h103v103H0z"/></clipPath></defs></svg>