<svg xmlns="http://www.w3.org/2000/svg" width="116" height="116" fill="none" viewBox="0 0 116 116"><g fill="#fff" clip-path="url(#clip0_2813_164)"><path d="M69.356 56.038a14.659 14.659 0 0 0 3.37-9.366c0-8.12-6.606-14.727-14.726-14.727-8.12 0-14.727 6.607-14.727 14.727 0 3.554 1.266 6.818 3.37 9.366-5.98 2.633-10.166 8.613-10.166 15.556v2.265a3.399 3.399 0 0 0 3.398 3.399h36.25a3.399 3.399 0 0 0 3.398-3.399v-2.265c0-6.943-4.187-12.923-10.167-15.556ZM58 38.742c4.372 0 7.93 3.557 7.93 7.93 0 4.372-3.558 7.93-7.93 7.93s-7.93-3.558-7.93-7.93c0-4.373 3.558-7.93 7.93-7.93ZM43.336 70.461c.565-5.09 4.894-9.063 10.133-9.063h9.062c5.24 0 9.568 3.973 10.133 9.063H43.336Z"/><path d="M112.602 24.922A3.399 3.399 0 0 0 116 21.523V3.398A3.399 3.399 0 0 0 112.602 0H94.477a3.399 3.399 0 0 0-3.399 3.398v16.718l-7.563 7.563c-6.9-5.817-15.805-9.327-25.515-9.327s-18.615 3.51-25.515 9.327l-7.563-7.563V3.398A3.399 3.399 0 0 0 21.523 0H3.398A3.399 3.399 0 0 0 0 3.398v18.125a3.399 3.399 0 0 0 3.398 3.399h16.718l7.563 7.563c-5.817 6.9-9.327 15.805-9.327 25.515s3.51 18.615 9.327 25.515l-7.563 7.563H3.398A3.399 3.399 0 0 0 0 94.477v18.125A3.399 3.399 0 0 0 3.398 116h18.125a3.399 3.399 0 0 0 3.399-3.398V95.884l7.563-7.563c6.9 5.817 15.805 9.327 25.515 9.327s18.615-3.51 25.515-9.327l7.563 7.563v16.718A3.399 3.399 0 0 0 94.477 116h18.125a3.399 3.399 0 0 0 3.398-3.398V94.477a3.399 3.399 0 0 0-3.398-3.399H95.884l-7.563-7.563c5.817-6.9 9.327-15.805 9.327-25.515s-3.51-18.615-9.327-25.515l7.563-7.563h16.718ZM97.875 6.797h11.328v11.328H97.875V6.797Zm-79.75 11.328H6.797V6.797h11.328v11.328Zm0 91.078H6.797V97.875h11.328v11.328Zm79.75-11.328h11.328v11.328H97.875V97.875ZM58 90.852c-18.114 0-32.852-14.738-32.852-32.852 0-18.114 14.738-32.852 32.852-32.852 18.114 0 32.852 14.738 32.852 32.852 0 18.114-14.738 32.852-32.852 32.852Z"/></g><defs><clipPath id="clip0_2813_164"><path fill="#fff" d="M0 0h116v116H0z"/></clipPath></defs></svg>