<svg xmlns="http://www.w3.org/2000/svg" width="99" height="99" fill="none" viewBox="0 0 99 99"><path fill="#fff" d="M41.042 75.457 29.377 87.123c-4.836 4.836-12.668 4.836-17.5 0-4.834-4.833-4.834-12.665-.001-17.497L35.21 46.29c4.832-4.833 12.665-4.833 17.497 0a4.125 4.125 0 0 0 5.833-5.834c-8.054-8.054-21.11-8.054-29.164 0L6.042 63.792c-8.054 8.054-8.054 21.11 0 29.164 8.053 8.059 21.11 8.059 29.169 0l11.665-11.665a4.125 4.125 0 1 0-5.834-5.834Z"/><path fill="#fff" d="M92.957 35.206c8.054-8.054 8.054-21.11 0-29.164-8.054-8.054-21.11-8.054-29.167 0L49.792 20.037a4.125 4.125 0 0 0 5.833 5.834l13.996-13.996c4.836-4.833 12.67-4.833 17.501 0 4.833 4.832 4.833 12.665 0 17.497L61.458 55.038c-4.832 4.833-12.665 4.833-17.497 0a4.125 4.125 0 0 0-5.834 5.834c8.054 8.054 21.11 8.054 29.165 0l25.665-25.666ZM77.168 71.334a4.125 4.125 0 0 0-5.833 5.834l12.37 12.37a4.125 4.125 0 0 0 5.834-5.833l-12.37-12.37ZM21.838 27.672a4.125 4.125 0 0 0 5.834-5.834L15.289 9.455a4.125 4.125 0 0 0-5.834 5.834l12.383 12.383ZM94.874 61.874H82.499a4.125 4.125 0 1 0 0 8.25h12.375a4.125 4.125 0 1 0 0-8.25ZM33 20.625a4.125 4.125 0 0 0 4.125-4.125V4.125a4.125 4.125 0 1 0-8.25 0V16.5A4.125 4.125 0 0 0 33 20.625ZM4.125 37.124H16.5a4.125 4.125 0 1 0 0-8.25H4.125a4.125 4.125 0 1 0 0 8.25ZM66 78.374a4.125 4.125 0 0 0-4.126 4.125v12.375a4.125 4.125 0 1 0 8.25 0V82.499a4.125 4.125 0 0 0-4.125-4.125Z"/></svg>