<svg xmlns="http://www.w3.org/2000/svg" width="113" height="113" fill="none" viewBox="0 0 113 113"><path fill="#fff" fill-rule="evenodd" d="M37.954 52.573c5.857-11.526 19.21-14.177 27.75-10.043 9.276 4.483 13.485 17.285 9.46 32.304-2.458 10.217-12.317 22.539-21.047 31.249a3.529 3.529 0 0 1-3.404.914c-11.916-3.178-26.616-8.922-33.853-16.54C5.862 79.463 3.107 66.274 8.9 57.752c5.33-7.853 18.22-12.232 29.055-5.179Zm-.942 8.301c-7.693-7.68-18.226-5.109-22.27.843-1.968 2.895-2.237 6.563-1.2 10.429 1.186 4.43 4.053 9.068 8.342 13.343.024.028.047.052.07.075 6.098 6.446 18.264 11.15 28.609 14.064 7.5-7.693 15.688-17.854 17.74-26.48l.029-.103c1.573-5.848 1.737-11.3.55-15.73-1.035-3.866-3.102-6.908-6.252-8.428-6.479-3.136-16.884-.095-19.714 10.405a3.52 3.52 0 0 1-2.495 2.49 3.538 3.538 0 0 1-3.409-.908Z" clip-rule="evenodd"/><path fill="#fff" fill-rule="evenodd" d="M75.272 68.03a3.533 3.533 0 0 1-2.528-6.596c7.222-2.768 14.181-6.3 18.301-10.655.024-.028.047-.052.07-.075 4.29-4.28 7.157-8.918 8.344-13.348 1.036-3.866.767-7.534-1.2-10.424-4.045-5.956-14.578-8.527-22.271-.848a3.527 3.527 0 0 1-3.41.909 3.52 3.52 0 0 1-2.495-2.49c-2.83-10.5-13.235-13.542-19.713-10.406-3.15 1.525-5.217 4.567-6.253 8.428-1.186 4.43-1.022 9.882.55 15.735l.03.099c.578 2.448 1.69 5.028 3.125 7.646a3.526 3.526 0 0 1-1.393 4.793 3.526 3.526 0 0 1-4.793-1.394c-1.757-3.201-3.08-6.365-3.8-9.364-4.026-15.02.184-27.813 9.46-32.3 8.54-4.133 21.893-1.483 27.75 10.048 10.834-7.058 23.725-2.674 29.055 5.174 5.787 8.523 3.037 21.71-7.929 32.672-4.731 5-12.613 9.219-20.9 12.397ZM29.055 24.319a3.53 3.53 0 0 1-1.582 4.736 3.53 3.53 0 0 1-4.737-1.582l-2.354-4.708a3.53 3.53 0 1 1 6.319-3.155l2.354 4.709ZM81.59 88.681a3.53 3.53 0 1 1 6.319-3.155l2.354 4.71a3.53 3.53 0 0 1-1.582 4.736 3.53 3.53 0 0 1-4.736-1.582L81.59 88.68ZM18.056 45.534a3.53 3.53 0 1 1-3.155-6.319l4.71-2.353a3.53 3.53 0 0 1 4.736 1.581 3.53 3.53 0 0 1-1.582 4.737l-4.709 2.354ZM92.59 67.466a3.53 3.53 0 1 1 3.155 6.319l-4.71 2.353a3.53 3.53 0 0 1-4.736-1.582 3.53 3.53 0 0 1 1.582-4.736l4.708-2.354Z" clip-rule="evenodd"/></svg>