<svg xmlns="http://www.w3.org/2000/svg" width="94" height="108" fill="none" viewBox="0 0 94 108"><path fill="#fff" d="M39.531 82.653a7.188 7.188 0 1 0 0-14.375 7.188 7.188 0 0 0 0 14.375Z"/><path fill="#fff" d="M62.71 43.122H17.97v-13.62A22.066 22.066 0 0 1 36.692 7.363a21.563 21.563 0 0 1 24.186 18.364 3.593 3.593 0 0 0 3.594 3.019 3.594 3.594 0 0 0 3.594-4.097A28.75 28.75 0 0 0 37.626.069a29.397 29.397 0 0 0-26.845 29.684v14.375A16.316 16.316 0 0 0 0 59.438v32.2a16.35 16.35 0 0 0 16.208 16.171H62.71a16.353 16.353 0 0 0 16.352-16.172V59.653A16.351 16.351 0 0 0 62.71 43.122Zm9.165 48.515a9.163 9.163 0 0 1-9.164 9.164H16.208a9.16 9.16 0 0 1-9.02-9.164V59.653a9.164 9.164 0 0 1 9.02-9.344H62.71a9.165 9.165 0 0 1 9.164 9.164v32.164ZM83.41 32.664l7.188-1.402a3.661 3.661 0 0 0-1.401-7.187l-7.188 1.401a3.594 3.594 0 0 0-2.839 4.241 3.594 3.594 0 0 0 4.24 2.947ZM80.033 20.625l6.037-3.882a3.594 3.594 0 1 0-3.88-6.037l-6.038 3.881a3.594 3.594 0 0 0 3.88 6.038ZM90.563 39.312l-7.188-1.258a3.594 3.594 0 0 0-4.169 2.875 3.594 3.594 0 0 0 2.911 4.17l7.188 1.293a3.595 3.595 0 1 0 1.258-7.08Z"/></svg>