<svg xmlns="http://www.w3.org/2000/svg" width="115" height="115" fill="none" viewBox="0 0 115 115"><g fill="#fff" clip-path="url(#clip0_3654_35870)"><path d="M57.5 24.707c6.823 0 12.353-5.53 12.353-12.354C69.853 5.532 64.323 0 57.5 0c-6.823 0-12.353 5.53-12.353 12.354 0 6.822 5.53 12.353 12.353 12.353ZM35.285 93.204c-3.487 3.733-8.448 6.073-13.947 6.073-5.5 0-10.46-2.34-13.947-6.073C2.934 96.238 0 101.352 0 107.14v4.492A3.37 3.37 0 0 0 3.37 115h35.937a3.37 3.37 0 0 0 3.369-3.369v-4.492c0-5.787-2.934-10.901-7.391-13.935ZM107.609 93.204c-3.487 3.733-8.448 6.073-13.947 6.073-5.5 0-10.46-2.34-13.947-6.073-4.457 3.034-7.39 8.148-7.39 13.935v4.492A3.37 3.37 0 0 0 75.692 115h35.938a3.37 3.37 0 0 0 3.369-3.369v-4.492c0-5.787-2.934-10.901-7.391-13.935ZM81.47 82.173c.954 5.87 6.057 10.366 12.192 10.366 6.812 0 12.354-5.542 12.354-12.353 0-6.812-5.542-12.354-12.354-12.354-5.104 0-9.496 3.112-11.376 7.539l-14.689-4.562c-.161-4.222-2.924-7.787-6.728-9.136V47.168h14.6a3.37 3.37 0 0 0 3.369-3.37v-4.491c0-5.787-2.934-10.901-7.391-13.935-3.487 3.733-8.448 6.073-13.947 6.073-5.5 0-10.46-2.34-13.947-6.073-4.457 3.034-7.39 8.148-7.39 13.935v4.492a3.37 3.37 0 0 0 3.368 3.369h14.6v14.505c-3.804 1.35-6.566 4.914-6.728 9.136l-14.689 4.562c-1.88-4.427-6.272-7.539-11.376-7.539-6.812 0-12.354 5.542-12.354 12.354 0 6.811 5.542 12.353 12.354 12.353 6.135 0 11.237-4.496 12.191-10.366l15.873-4.93A10.099 10.099 0 0 0 57.5 81.31c3.31 0 6.253-1.6 8.098-4.065l15.873 4.93Z"/></g><defs><clipPath id="clip0_3654_35870"><path fill="#fff" d="M0 0h115v115H0z"/></clipPath></defs></svg>