<svg xmlns="http://www.w3.org/2000/svg" viewBox="0 0 24 24" fill="white">
<path d="M9 11H7v2h2v-2zm4 0h-2v2h2v-2zM13 3.13c.5.25 1 .4 1.5.4s1-.15 1.5-.4c.36-.18.75-.31 1.15-.4.6-.16 1.25-.25 1.9-.25 1.7 0 3.25.65 4.4 1.8 1.1 1.1 1.8 2.65 1.8 4.4v5.2c0 1.75-.7 3.3-1.8 4.4-1.15 1.15-2.7 1.8-4.4 1.8-.65 0-1.3-.09-1.9-.25-.4-.09-.79-.22-1.15-.4-.5-.25-1-.4-1.5-.4s-1 .15-1.5.4c-.36.18-.75.31-1.15.4-.6.16-1.25.25-1.9.25-1.7 0-3.25-.65-4.4-1.8C.7 16.3 0 14.75 0 13V7.8c0-1.75.7-3.3 1.8-4.4C3 1.78 4.55 1.13 6.25 1.13c.65 0 1.3.09 1.9.25.4.09.79.22 1.15.4zM6.25 3.13c-.65 0-1.3.09-1.9.25-.4.09-.79.22-1.15.4-.5.25-1 .4-1.5.4v5.2c0 .75.3 1.45.8 2 .5.55 1.2.8 2 .8.65 0 1.3-.09 1.9-.25.4-.09.79-.22 1.15-.4.5-.25 1-.4 1.5-.4s1 .15 1.5.4c.36.18.75.31 1.15.4.6.16 1.25.25 1.9.25 1.7 0 3.25-.65 4.4-1.8 1.1-1.1 1.8-2.65 1.8-4.4 0-.75-.3-1.45-.8-2-.5-.55-1.2-.8-2-.8-.65 0-1.3.09-1.9.25-.4.09-.79.22-1.15.4-.5.25-1 .4-1.5.4s-1-.15-1.5-.4c-.36-.18-.75-.31-1.15-.4-.6-.16-1.25-.25-1.9-.25z"/>
</svg>
